<?xml version="1.0" standalone="no"?><!DOCTYPE svg PUBLIC "-//W3C//DTD SVG 1.1//EN" "http://www.w3.org/Graphics/SVG/1.1/DTD/svg11.dtd"><svg t="1534136646551" class="icon" style="" viewBox="0 0 1024 1024" version="1.1" xmlns="http://www.w3.org/2000/svg" p-id="4263" xmlns:xlink="http://www.w3.org/1999/xlink" width="200" height="200"><defs><style type="text/css"></style></defs><path d="M512 264a317 317 0 0 0 89.88 41c41.81 11.78 76.34 15.43 100.24 16.18-2.08 26.55-6.45 68.17-15.6 122.4-7.66 45.4-22.95 85-45.45 117.83-23.22 33.84-47 49.87-59.16 56.42-38.36 20.72-67.64 22.09-69.91 22.17s-31.55-1.44-69.92-22.16c-12.13-6.55-35.94-22.59-59.16-56.42-22.5-32.79-37.79-72.43-45.45-117.83-9.14-54.23-13.52-95.85-15.6-122.4 23.9-0.74 58.43-4.4 100.24-16.18A317 317 0 0 0 512 264m0-40s-34.94 32.29-98.56 50.21c-44.45 12.52-79.68 15.13-101.35 15.13-15.53 0-24.09-1.34-24.09-1.34s0.6 58.18 17.92 160.91c18.5 109.72 76.16 172.9 121 197.09 47.78 25.8 84 26 85.09 26H512c1.12 0 37.31-0.2 85.09-26 44.8-24.19 102.46-87.38 121-197.09C735.4 346.18 736 288 736 288s-8.56 1.34-24.09 1.34c-21.67 0-56.9-2.61-101.35-15.13C546.94 256.29 512 224 512 224z" p-id="4264" fill="#dbdbdb"></path><path d="M512 256v192H320l-15.67-139.22L512 256zM512 448v207.15L576 640l67.96-59 36.82-63.26L704 448H512z" p-id="4265" fill="#dbdbdb"></path><path d="M895.89 192l0.11 0.11v575.78l-0.11 0.11H128.11l-0.11-0.11V192.11l0.11-0.11h767.78m0.11-64H128a64.19 64.19 0 0 0-64 64v576a64.19 64.19 0 0 0 64 64h768a64.19 64.19 0 0 0 64-64V192a64.19 64.19 0 0 0-64-64zM832 896H192v64h640v-64z" p-id="4266" fill="#dbdbdb"></path><path d="M576 768H448v128h128V768zM128 704h768v64H128z" p-id="4267" fill="#dbdbdb"></path></svg>