<?xml version="1.0" standalone="no"?><!DOCTYPE svg PUBLIC "-//W3C//DTD SVG 1.1//EN"
        "http://www.w3.org/Graphics/SVG/1.1/DTD/svg11.dtd">
<svg t="1534136066125" class="icon" style="" viewBox="0 0 1024 1024" version="1.1" xmlns="http://www.w3.org/2000/svg"
     p-id="2054" xmlns:xlink="http://www.w3.org/1999/xlink" width="200" height="200">
    <defs>
        <style type="text/css"></style>
    </defs>
    <path d="M512 332.8c-64 0-128 12.8-192 38.4-57.6 25.6-108.8 64-160 108.8l44.8 44.8c76.8-76.8 185.6-128 307.2-128s224 51.2 307.2 128L864 480c-44.8-44.8-96-83.2-160-108.8-57.6-25.6-121.6-38.4-192-38.4zM294.4 627.2l44.8 44.8c25.6-25.6 51.2-44.8 83.2-57.6 6.4-32 19.2-57.6 38.4-76.8-64 12.8-121.6 44.8-166.4 89.6z"
          fill="#fff" p-id="2055"></path>
    <path d="M512 147.2c-89.6 0-179.2 19.2-262.4 51.2C166.4 236.8 96 281.6 32 345.6l44.8 44.8C192 281.6 345.6 211.2 512 211.2c172.8 0 326.4 70.4 435.2 179.2l44.8-44.8c-64-64-134.4-108.8-217.6-147.2-83.2-32-172.8-51.2-262.4-51.2zM620.8 467.2c-64 0-121.6 32-160 76.8-19.2 19.2-32 44.8-38.4 76.8-6.4 12.8-6.4 32-6.4 51.2 0 32 6.4 57.6 19.2 83.2 6.4 19.2 19.2 38.4 38.4 57.6l12.8 12.8c6.4 6.4 19.2 12.8 32 19.2 32 19.2 64 25.6 102.4 25.6 115.2 0 204.8-89.6 204.8-204.8 0-108.8-89.6-198.4-204.8-198.4z m0 76.8c12.8 0 32 12.8 32 25.6l-6.4 70.4v44.8c0 12.8-6.4 25.6-25.6 25.6-12.8 0-25.6-12.8-25.6-25.6v-70.4l-6.4-44.8c0-6.4 6.4-12.8 12.8-19.2 6.4-6.4 12.8-6.4 19.2-6.4z m0 249.6c-12.8 0-25.6-12.8-32-25.6V748.8c6.4-12.8 19.2-19.2 32-19.2 19.2 0 32 12.8 32 32s-12.8 32-32 32z"
          fill="#fff" p-id="2056"></path>
</svg>