<?xml version="1.0" standalone="no"?><!DOCTYPE svg PUBLIC "-//W3C//DTD SVG 1.1//EN" "http://www.w3.org/Graphics/SVG/1.1/DTD/svg11.dtd"><svg t="1533779736821" class="icon" style="" viewBox="0 0 1024 1024" version="1.1" xmlns="http://www.w3.org/2000/svg" p-id="2226" xmlns:xlink="http://www.w3.org/1999/xlink" width="200" height="200"><defs><style type="text/css"></style></defs><path d="M145.621699 869.631638A510.293121 510.293121 0 0 1 0.000427 511.999787C0.000427 229.247904 229.248331 0 512.000213 0s511.999787 229.247904 511.999787 511.999787c0 140.501275-56.618643 267.818555-148.266605 360.31985l-18.687992 20.607991a293.247878 293.247878 0 0 0-1.493333-1.322666A510.122454 510.122454 0 0 1 512.000213 1023.999573a510.122454 510.122454 0 0 1-343.594523-132.437278 292.693211 292.693211 0 0 0-1.536 1.408l-21.247991-23.338657z m703.573041-62.975974A446.122481 446.122481 0 0 0 960.000027 511.999787c0-247.039897-200.959916-447.999813-447.999814-447.999814S64.0004 264.95989 64.0004 511.999787c0 112.725286 41.813316 215.850577 110.805287 294.655877 88.23463-56.78931 209.493246-89.599963 337.194526-89.599963 127.658613 0 248.959896 32.810653 337.194527 89.599963z m-46.805314 46.207981A446.079814 446.079814 0 0 1 512.000213 959.9996c-110.719954 0-212.138578-40.36265-290.431879-107.093289 76.714635-45.653314 180.437258-71.850637 290.431879-71.850636 109.994621 0 213.674578 26.154656 290.389213 71.80797zM512.000213 281.173216a168.95993 168.95993 0 1 0 0 337.919859 168.95993 168.95993 0 0 0 0-337.919859z m0 63.999974a105.087956 105.087956 0 0 1 104.959957 104.959956A105.130623 105.130623 0 0 1 512.000213 555.178435a105.130623 105.130623 0 0 1-104.959956-105.045289A105.087956 105.087956 0 0 1 512.000213 345.17319z" p-id="2227" fill="#ffffff"></path></svg>