<?xml version="1.0" standalone="no"?><!DOCTYPE svg PUBLIC "-//W3C//DTD SVG 1.1//EN"
        "http://www.w3.org/Graphics/SVG/1.1/DTD/svg11.dtd">
<svg t="1534138848072" class="icon" style="" viewBox="0 0 1256 1024" version="1.1" xmlns="http://www.w3.org/2000/svg"
     p-id="2377" xmlns:xlink="http://www.w3.org/1999/xlink" width="245.3125" height="200">
    <defs>
        <style type="text/css"></style>
    </defs>
    <path d="M12.059526 455.324396l135.437749 68.337312 0.618437 282.161978a21.181474 21.181474 0 0 0 13.141791 20.099209l457.643536 196.199205h0.618437l3.092186 1.236874h1.236874c1.236874 0 2.473749 0.618437 3.710624 0.618438a7.885074 7.885074 0 0 0 3.710623-0.618438h1.236874c1.236874 0 1.855312-0.618437 3.092186-1.236874h0.618437l457.643536-196.199205a21.799912 21.799912 0 0 0 13.141791-20.099209l0.618437-282.161978 135.437749-68.337312c5.720544-2.473749 9.431167-7.575856 11.28648-13.760228a19.9446 19.9446 0 0 0-1.855312-18.862335L1102.364328 178.109917a0.618437 0.618437 0 0 0-0.618437-0.618438c-0.618437-0.618437-1.236874-1.855312-1.855312-2.473748l-3.092186-3.092186h-0.618437c-0.618437-0.618437-1.855312-1.236874-2.473749-1.855312s-0.618437-0.618437-1.236874-0.618437-0.618437-0.618437-1.236875-0.618437L635.289625 1.236874c-0.618437 0-1.236874-0.618437-2.473749-0.618437s-1.855312-0.618437-2.473749-0.618437h-4.947498c-1.236874 0-1.855312 0.618437-3.092186 0.618437a2.31914 2.31914 0 0 0-1.855311 0.618437L164.968126 169.297186c-0.618437 0-0.618437 0.618437-1.236874 0.618438s-0.618437 0.618437-1.236875 0.618437-1.855312 1.236874-2.473749 1.855311a0.618437 0.618437 0 0 0-0.618437 0.618438 4.947498 4.947498 0 0 0-2.473749 2.473749l-0.618437 0.618437a8.658121 8.658121 0 0 0-1.855312 2.473749 0.618437 0.618437 0 0 1-0.618437 0.618437L3.246795 423.938708A22.10913 22.10913 0 0 0 0 432.906047v5.102107a20.717647 20.717647 0 0 0 0.773047 3.401405 22.572958 22.572958 0 0 0 11.286479 13.914837zM1203.324203 425.175582l-126.625019 64.008252-304.116499 152.290163-114.101665-198.827563L1076.080747 218.926773zM650.286727 53.958647l380.029666 139.766809-2.473749 1.236875-377.401308 202.538186z m0 462.745643l94.620893 164.968125a11.13187 11.13187 0 0 0 2.473749 3.092187l0.618437 0.618437a8.81273 8.81273 0 0 0 2.473749 1.855311 0.618437 0.618437 0 0 1 0.618437 0.618438l3.092186 1.855311a0.618437 0.618437 0 0 1 0.618438 0.618437c0.618437 0.618437 1.855312 0.618437 2.473748 1.236875h0.618438a7.885074 7.885074 0 0 0 3.710623 0.618437h3.092186a5.565935 5.565935 0 0 0 3.092186-0.618437h1.236874c1.236874-0.618437 3.092186-0.618437 4.329061-1.855312l290.974708-146.105791L1063.712002 790.053537 650.286727 967.545016zM607.614559 967.545016h-1.236874L192.643191 790.053537l-0.618437-245.828792 290.974708 146.105791 4.32906 1.855312h1.855312a5.720544 5.720544 0 0 1 3.092186 0.618437h3.092186c1.236874 0 2.473749-0.618437 3.710623-0.618437h0.618437l3.092186-1.236874a0.618437 0.618437 0 0 0 0.618437-0.618438l3.092187-1.855311 0.618437-0.618437c0.618437-0.618437 1.855312-1.236874 2.473749-2.473749l0.618437-0.618437c0.618437-1.236874 1.855312-1.855312 2.473749-3.092187l94.620893-164.968125z m-1.236874-913.586369v343.54187L265.928001 214.443103l-39.579982-21.336084zM180.738275 219.54521l417.445117 223.101224-114.101665 198.827563-303.961889-152.290163-126.779629-63.389814z"
          fill="#CDCDCD" p-id="2378"></path>
</svg>